<svg xmlns="http://www.w3.org/2000/svg" viewBox="0 0 724.74 1000">
  <style>
    path {
      fill: #65a30d;
    }

    @media (prefers-color-scheme: dark) {
      path {
        fill: #a3e635;
      }
    }
  </style>
  <path d="M630.4,382.88v-114.85C630.4,120,510.4,0,362.37,0S94.34,120,94.34,268.03v114.85C39.85,398.73,0,448.94,0,508.55v360.49c0,72.33,58.63,130.96,130.96,130.96h462.82c72.33,0,130.96-58.63,130.96-130.96v-360.49c0-59.6-39.85-109.82-94.34-125.67ZM362.37,95.29c95.4,0,172.74,77.34,172.74,172.74l.13,109.56H189.92l-.3-109.56c0-95.4,77.34-172.74,172.74-172.74ZM630.4,522.35c0,36.76-29.8,66.55-66.55,66.55h-153.92c-8.21,0-14.87,6.66-14.87,14.87,0,112.07,31.76,175.57,123.28,175.57,42.96,0,74.71-5.6,95.26-11.21l7.47,123.28c-31.76,13.08-82.19,22.42-145.69,22.42-76.58,0-138.22-24.28-177.44-69.11-46.69-48.56-63.51-128.88-63.51-235.34v-5.6c0-8.21-6.66-14.87-14.87-14.87h-110.35c-8.21,0-14.87-6.66-14.87-14.87v-95.41c0-8.21,6.66-14.87,14.87-14.87h506.32c8.21,0,14.87,6.66,14.87,14.87v43.72Z" />
</svg>
