<?xml version="1.0" encoding="UTF-8"?><svg id="Layer_2" xmlns="http://www.w3.org/2000/svg" viewBox="0 0 100.09 120.81"><defs><style>.cls-1{fill:#7ac943;}</style></defs><g id="Layer_2-2"><path class="cls-1" d="M82.31,58.38c-3.67,14.14-16.39,24.64-31.61,24.93-18.83.36-34.31-15.1-33.97-33.94.33-18.12,15.12-32.71,33.32-32.71,15.51,0,28.54,10.59,32.26,24.94,0,.03.04.06.07.06h16.88s.08-.04.07-.09C94.83,15.07,69.49-4.33,40.76.84,20.12,4.55,4.04,21.01.72,41.72c-5.01,31.27,19,58.26,49.33,58.26,24.74,0,45.28-17.97,49.28-41.57,0-.05-.03-.09-.07-.09h-16.88s-.06.02-.07.06Z"/><path class="cls-1" d="M91.34,91.28s-.08-.03-.1,0c-10.55,10.52-25.11,17.03-41.19,17.03s-30.64-6.51-41.19-17.03c-.03-.03-.08-.03-.1,0L.02,100.01s-.03.08,0,.11c12.81,12.78,30.49,20.69,50.02,20.69s37.21-7.9,50.02-20.69c.03-.03.03-.08,0-.11l-8.73-8.73Z"/><path class="cls-1" d="M100.07,100.01s.03.08,0,.11c-2.17,2.17-4.48,4.19-6.91,6.05-2.43,1.87-4.98,3.57-7.64,5.11-.04.02-.08,0-.1-.03l-10.37-17.97-8.3-14.37s0-.08.03-.1c2.48-1.44,4.76-3.2,6.78-5.21.03-.03.08-.03.1,0l26.41,26.41Z"/></g></svg>